<svg width="105.0000" height="41.3218" viewBox="-2.5000 -0.5385 105.0000 41.3218" fill="none" xmlns="http://www.w3.org/2000/svg"><path d="M88.5334 39.0025L79.3327 27.5775V39.0025H71.1847V2.08085H79.3327V24.8476L88.1052 14.7191H99.3042L88.4917 25.9181L100 38.9965H88.5334V39.0025ZM64.6783 16.8186C66.3376 18.6385 66.8193 20.1967 66.8193 23.5689V39.0025H58.6714V26.7329C58.6714 24.0506 58.6178 23.8901 58.1361 22.8731C57.6543 21.749 56.3162 20.9996 54.9185 20.9996C52.1827 20.9996 50.6304 22.8195 50.6304 25.9836V39.0084H42.4825V14.7251H50.6304V17.7821C51.0051 17.3003 51.3798 16.9256 51.701 16.5509C53.1997 14.9987 55.3467 14.1363 58.0231 14.1363C60.6994 14.1363 63.0606 15.0462 64.6664 16.8186M41.5785 5.41736C41.5785 2.65775 43.7849 0.445312 46.5505 0.445312C49.316 0.445312 51.5225 2.65181 51.5225 5.41736C51.5225 8.18291 49.316 10.3894 46.5505 10.3894C43.7849 10.3894 41.5785 8.18291 41.5785 5.41736ZM29.9512 2.0868H38.0992V39.0084H29.9512V2.08085V2.0868ZM13.1735 32.4187C10.2236 32.4187 7.86844 29.9505 7.86844 26.8995C7.86844 23.8484 10.2236 21.3267 13.1735 21.3267C16.1235 21.3267 18.4251 23.789 18.4251 26.8995C18.4251 30.01 16.0699 32.4187 13.1735 32.4187ZM15.3206 13.9281C13.013 13.9281 10.6578 14.731 9.15903 16.0157C8.94493 16.2298 8.57024 16.6045 8.14202 17.0862V2.08085H0V39.0025H8.14797V36.3202C9.32556 37.926 10.0214 38.4613 11.6332 39.1036C12.7572 39.5853 13.9883 39.7994 15.2254 39.7994C21.8152 39.7994 26.9062 34.1732 26.9062 26.7746C26.9062 19.376 21.8687 13.9103 15.3325 13.9103" fill="black"/><path d="M88.5334 39.0025L79.3327 27.5775V39.0025H71.1847V2.08085H79.3327V24.8476L88.1052 14.7191H99.3042L88.4917 25.9181L100 38.9965H88.5334V39.0025ZM64.6783 16.8186C66.3376 18.6385 66.8193 20.1967 66.8193 23.5689V39.0025H58.6714V26.7329C58.6714 24.0506 58.6178 23.8901 58.1361 22.8731C57.6543 21.749 56.3162 20.9996 54.9185 20.9996C52.1827 20.9996 50.6304 22.8195 50.6304 25.9836V39.0084H42.4825V14.7251H50.6304V17.7821C51.0051 17.3003 51.3798 16.9256 51.701 16.5509C53.1997 14.9987 55.3467 14.1363 58.0231 14.1363C60.6994 14.1363 63.0606 15.0462 64.6664 16.8186M41.5785 5.41736C41.5785 2.65775 43.7849 0.445312 46.5505 0.445312C49.316 0.445312 51.5225 2.65181 51.5225 5.41736C51.5225 8.18291 49.316 10.3894 46.5505 10.3894C43.7849 10.3894 41.5785 8.18291 41.5785 5.41736ZM29.9512 2.0868H38.0992V39.0084H29.9512V2.08085V2.0868ZM13.1735 32.4187C10.2236 32.4187 7.86844 29.9505 7.86844 26.8995C7.86844 23.8484 10.2236 21.3267 13.1735 21.3267C16.1235 21.3267 18.4251 23.789 18.4251 26.8995C18.4251 30.01 16.0699 32.4187 13.1735 32.4187ZM15.3206 13.9281C13.013 13.9281 10.6578 14.731 9.15903 16.0157C8.94493 16.2298 8.57024 16.6045 8.14202 17.0862V2.08085H0V39.0025H8.14797V36.3202C9.32556 37.926 10.0214 38.4613 11.6332 39.1036C12.7572 39.5853 13.9883 39.7994 15.2254 39.7994C21.8152 39.7994 26.9062 34.1732 26.9062 26.7746C26.9062 19.376 21.8687 13.9103 15.3325 13.9103" fill="black" fill-opacity="0.2"/></svg>